<?xml version="1.0" encoding="UTF-8" standalone="no"?>
<svg
   width="300"
   height="300"
   version="1.1"
   id="svg1293"
   sodipodi:docname="delete.svg"
   inkscape:version="1.1.1 (c3084ef, 2021-09-22)"
   xmlns:inkscape="http://www.inkscape.org/namespaces/inkscape"
   xmlns:sodipodi="http://sodipodi.sourceforge.net/DTD/sodipodi-0.dtd"
   xmlns="http://www.w3.org/2000/svg"
   xmlns:svg="http://www.w3.org/2000/svg">
  <defs
     id="defs1297" />
  <sodipodi:namedview
     id="namedview1295"
     pagecolor="#ffffff"
     bordercolor="#666666"
     borderopacity="1.0"
     inkscape:pageshadow="2"
     inkscape:pageopacity="0.0"
     inkscape:pagecheckerboard="0"
     showgrid="false"
     inkscape:zoom="1.3483374"
     inkscape:cx="122.74376"
     inkscape:cy="170.95127"
     inkscape:window-width="1296"
     inkscape:window-height="969"
     inkscape:window-x="282"
     inkscape:window-y="69"
     inkscape:window-maximized="0"
     inkscape:current-layer="svg1293" />
  <path
     d="m 268.7892,22.268742 c -8.62521,-7.921927 -21.83509,-6.913724 -29.95113,1.571405 L 146.77034,120.16775 54.277029,23.398005 c -8.331619,-8.707646 -21.84042,-8.707646 -30.172039,0 l -0.304132,0.317882 c -8.331589,8.710471 -8.331589,22.830785 0,31.544047 l 92.504052,96.781036 -92.501374,96.78098 c -8.331561,8.71044 -8.331561,22.83361 0,31.54408 l 0.30416,0.31788 c 8.33159,8.71044 21.837714,8.71044 30.172068,0 l 92.493256,-96.77257 92.06772,96.32757 c 8.11608,8.48517 21.32596,9.49054 29.95117,1.57148 9.44675,-8.67668 9.79695,-23.73767 1.04512,-32.88746 l -92.60644,-96.88519 92.60108,-96.88801 c 8.75451,-9.149787 8.40431,-24.207955 -1.04517,-32.884596 z"
     style="fill:#bc8f8f;stroke:#000000;stroke-width:2.75399995;stroke-miterlimit:4;stroke-dasharray:none"
     id="e2_shape" />
</svg>
