<?xml version="1.0" encoding="UTF-8" standalone="no"?>
<!-- Created with Inkscape (http://www.inkscape.org/) -->

<svg
   width="210mm"
   height="119mm"
   viewBox="0 0 210 119"
   version="1.1"
   id="svg5"
   inkscape:version="1.1.1 (c3084ef, 2021-09-22)"
   sodipodi:docname="hammock.svg"
   xmlns:inkscape="http://www.inkscape.org/namespaces/inkscape"
   xmlns:sodipodi="http://sodipodi.sourceforge.net/DTD/sodipodi-0.dtd"
   xmlns="http://www.w3.org/2000/svg"
   xmlns:svg="http://www.w3.org/2000/svg">
  <sodipodi:namedview
     id="namedview7"
     pagecolor="#ffffff"
     bordercolor="#666666"
     borderopacity="1.0"
     inkscape:pageshadow="2"
     inkscape:pageopacity="0.0"
     inkscape:pagecheckerboard="0"
     inkscape:document-units="mm"
     showgrid="false"
     inkscape:zoom="0.83218493"
     inkscape:cx="309.42641"
     inkscape:cy="501.09054"
     inkscape:window-width="1792"
     inkscape:window-height="1120"
     inkscape:window-x="0"
     inkscape:window-y="0"
     inkscape:window-maximized="0"
     inkscape:current-layer="layer2" />
  <defs
     id="defs2" />
  <g
     inkscape:groupmode="layer"
     id="layer2"
     inkscape:label="Hammock">
    <path
       style="fill:none;stroke:#000000;stroke-width:1.465;stroke-linecap:butt;stroke-linejoin:miter;stroke-opacity:1;stroke-miterlimit:4;stroke-dasharray:none"
       d="M 15.80826,29.860046 34.004627,51.27825"
       id="path892"
       sodipodi:nodetypes="cc" />
    <path
       style="fill:none;stroke:#000000;stroke-width:1.465;stroke-linecap:round;stroke-linejoin:miter;stroke-miterlimit:4;stroke-dasharray:none;stroke-opacity:1"
       d="M 21.420168,71.128743 C 19.854965,71.021733 20.11514,67.584359 21.69623,67.340227 22.079718,66.492963 34.004627,51.27825 34.004627,51.27825"
       id="path1093"
       sodipodi:nodetypes="ccc" />
    <path
       style="fill:none;stroke:#000000;stroke-width:1.465;stroke-linecap:round;stroke-linejoin:miter;stroke-miterlimit:4;stroke-dasharray:none;stroke-opacity:1"
       d="m 38.957049,71.336028 c -1.301323,-0.653774 -1.483926,-2.513797 0.157786,-3.183215 L 34.004627,51.27825"
       id="path1095"
       sodipodi:nodetypes="ccc" />
    <path
       style="fill:none;stroke:#000000;stroke-width:1.465;stroke-linecap:butt;stroke-linejoin:miter;stroke-opacity:1;stroke-miterlimit:4;stroke-dasharray:none"
       d="M 56.612274,71.806205 C 55.308613,71.624064 55.034667,69.516849 55.992396,68.860151 53.818698,67.203908 36.326426,52.955021 34.004627,51.27825"
       id="path1097"
       sodipodi:nodetypes="ccc" />
    <path
       style="fill:none;stroke:#000000;stroke-width:1.465;stroke-linecap:round;stroke-linejoin:miter;stroke-miterlimit:4;stroke-dasharray:none;stroke-opacity:1"
       d="M 69.90935,72.802657 C 68.064392,71.67162 69.786818,69.538495 69.786818,69.538495 L 34.004627,51.27825"
       id="path1099"
       sodipodi:nodetypes="ccc" />
    <path
       style="fill:none;stroke:#000000;stroke-width:0.264583px;stroke-linecap:butt;stroke-linejoin:miter;stroke-opacity:1"
       d="m 18.283189,67.872448 c 0,0 58.102547,1.997145 60.156284,2.155535 1.552646,0.830752 1.383516,2.071036 -0.292179,2.571241 -2.75359,-0.01463 -57.439602,-2.040294 -59.847821,-2.027006 -2.447656,-1.275861 -0.01628,-2.69977 -0.01628,-2.69977 z"
       id="path2411"
       sodipodi:nodetypes="cccccc" />
    <path
       style="fill:none;stroke:#000000;stroke-width:0.264583px;stroke-linecap:butt;stroke-linejoin:miter;stroke-opacity:1"
       d="m 78.439472,70.027982 c -2.406757,0.954317 -1.571377,1.772123 -0.292179,2.571242"
       id="path4384"
       sodipodi:nodetypes="cc" />
    <path
       style="fill:none;stroke:#000000;stroke-width:1.465;stroke-linecap:round;stroke-linejoin:miter;stroke-miterlimit:4;stroke-dasharray:none;stroke-opacity:1"
       d="m 199.77963,25.189162 -19.5309,18.662416 c -13.98776,3.501327 -41.03621,9.746326 -41.96329,10.503982 -2.98668,-0.03264 -3.02685,4.454792 -0.28748,4.195409"
       id="path4829"
       sodipodi:nodetypes="cccc" />
    <path
       style="fill:none;stroke:#000000;stroke-width:1.465;stroke-linecap:round;stroke-linejoin:miter;stroke-miterlimit:4;stroke-dasharray:none;stroke-opacity:1"
       d="m 155.28035,58.696529 c -2.70776,0.134869 -2.15667,-3.908658 0.55878,-3.89186"
       id="path5609"
       sodipodi:nodetypes="cc" />
    <path
       style="fill:none;stroke:#000000;stroke-width:1.465;stroke-linecap:butt;stroke-linejoin:miter;stroke-miterlimit:4;stroke-dasharray:none;stroke-opacity:1"
       d="m 180.24873,43.851578 -6.5142,11.57446 c -1.76774,-0.09084 -2.45778,3.119763 -0.62137,2.982566 v 0"
       id="path5611"
       sodipodi:nodetypes="cccc" />
    <path
       style="fill:none;stroke:#000000;stroke-width:1.465;stroke-linecap:butt;stroke-linejoin:miter;stroke-opacity:1;stroke-miterlimit:4;stroke-dasharray:none"
       d="m 155.83913,54.804669 24.4096,-10.953091"
       id="path5613" />
    <path
       style="fill:none;stroke:#000000;stroke-width:1.465;stroke-linecap:round;stroke-linejoin:miter;stroke-miterlimit:4;stroke-dasharray:none;stroke-opacity:1"
       d="m 180.24873,43.851578 12.13801,11.460729 c -2.24895,0.777706 -1.97647,3.784044 -0.28246,4.022456"
       id="path5615"
       sodipodi:nodetypes="ccc" />
    <ellipse
       style="fill:none;stroke:#000000;stroke-width:0.890314;stroke-linecap:round;stroke-miterlimit:4;stroke-dasharray:none;stroke-opacity:1"
       id="path6421"
       cx="196.6409"
       cy="57.830193"
       rx="1.8381078"
       ry="1.2836021"
       transform="matrix(0.99999592,-0.00285579,0,1,0,0)" />
    <path
       style="fill:none;stroke:#000000;stroke-width:0.565;stroke-linecap:butt;stroke-linejoin:miter;stroke-miterlimit:4;stroke-dasharray:none;stroke-opacity:1"
       d="m 132.49027,54.490498 c 0,0 63.04684,1.345148 64.22131,1.330872 -2.14872,0.338184 -2.28369,2.423826 0.0287,2.935043 -2.11847,0.07484 -61.87718,-0.940353 -64.8879,-1.258915 -2.41674,-0.539018 -0.70601,-3.220635 0.63785,-3.007 z"
       id="path6968"
       sodipodi:nodetypes="cccccc" />
    <path
       id="path9179"
       style="fill:none;stroke:#000000;stroke-width:0.264583px;stroke-linecap:butt;stroke-linejoin:miter;stroke-opacity:1"
       d="m 21.420168,71.128741 c 6.217153,1.70814 12.278253,3.475781 17.536881,0.207287 2.873582,1.535946 9.621598,8.409264 17.655225,0.470177 0,0 12.060373,6.471299 13.297076,0.996452 42.74667,16.795481 76.97586,29.244813 122.19493,-13.467894 M 21.420168,71.128741 C 88.103659,108.88283 149.65324,102.9058 192.10428,59.334762 c -6.67013,1.916966 -16.35518,6.569086 -18.99112,-0.926158 -4.50404,3.172106 -16.01906,6.12368 -18.76448,-0.20702 -4.08834,2.256807 -13.07349,5.377863 -16.35072,0.349385 -2.02828,6.873281 -33.45887,21.186969 -47.15891,21.981623" />
  </g>
</svg>
