<?xml version="1.0" encoding="UTF-8" standalone="no"?>
<!-- Created with Inkscape (http://www.inkscape.org/) -->

<svg
   width="90mm"
   height="70mm"
   viewBox="0 0 90 70"
   version="1.1"
   id="svg8861"
   inkscape:version="1.1.1 (c3084ef, 2021-09-22)"
   sodipodi:docname="measure.svg"
   xmlns:inkscape="http://www.inkscape.org/namespaces/inkscape"
   xmlns:sodipodi="http://sodipodi.sourceforge.net/DTD/sodipodi-0.dtd"
   xmlns="http://www.w3.org/2000/svg"
   xmlns:svg="http://www.w3.org/2000/svg">
  <sodipodi:namedview
     id="namedview8863"
     pagecolor="#ffffff"
     bordercolor="#666666"
     borderopacity="1.0"
     inkscape:pageshadow="2"
     inkscape:pageopacity="0.0"
     inkscape:pagecheckerboard="0"
     inkscape:document-units="mm"
     showgrid="false"
     inkscape:zoom="0.95315088"
     inkscape:cx="75.014357"
     inkscape:cy="75.014357"
     inkscape:window-width="1792"
     inkscape:window-height="993"
     inkscape:window-x="0"
     inkscape:window-y="25"
     inkscape:window-maximized="1"
     inkscape:current-layer="layer2" />
  <defs
     id="defs8858" />
  <g
     inkscape:groupmode="layer"
     id="layer2"
     inkscape:label="Layer 2">
    <g
       id="g12701"
       transform="translate(-59.959028,-24.982928)">
      <path
         style="fill:none;stroke:#000000;stroke-width:0.264583px;stroke-linecap:butt;stroke-linejoin:miter;stroke-opacity:1"
         d="m 124.69754,58.260326 c -0.85176,1.589952 -2.49849,2.555279 -3.93229,3.123118 -1.43379,0.567839 -2.65465,0.73819 -2.65465,0.73819"
         id="path8970"
         sodipodi:nodetypes="csc" />
      <path
         style="fill:none;stroke:#000000;stroke-width:1.065;stroke-linecap:round;stroke-miterlimit:4;stroke-dasharray:none;stroke-opacity:1"
         id="path11430"
         sodipodi:type="arc"
         sodipodi:cx="91.573212"
         sodipodi:cy="56.726372"
         sodipodi:rx="12.6483"
         sodipodi:ry="12.610812"
         sodipodi:start="6.2464873"
         sodipodi:end="6.2358718"
         sodipodi:arc-type="arc"
         d="M 104.213,56.263684 A 12.6483,12.610812 0 0 1 92.070818,69.327421 12.6483,12.610812 0 0 1 78.936069,57.255943 12.6483,12.610812 0 0 1 91.008531,44.128134 12.6483,12.610812 0 0 1 104.20736,56.129933"
         sodipodi:open="true" />
      <path
         style="fill:none;stroke:#000000;stroke-width:1.75748;stroke-linecap:round;stroke-opacity:1"
         id="path11596"
         sodipodi:type="arc"
         sodipodi:cx="111.14949"
         sodipodi:cy="77.174629"
         sodipodi:rx="3.20751"
         sodipodi:ry="3.0749681"
         sodipodi:start="6.246481"
         sodipodi:end="6.2358694"
         sodipodi:open="true"
         sodipodi:arc-type="arc"
         d="m 114.35484,77.06179 a 3.20751,3.0749681 0 0 1 -3.07914,3.185426 3.20751,3.0749681 0 0 1 -3.33089,-2.943445 3.20751,3.0749681 0 0 1 3.06147,-3.201043 3.20751,3.0749681 0 0 1 3.34713,2.926461" />
      <path
         style="fill:none;stroke:#000000;stroke-width:0.865;stroke-linecap:butt;stroke-linejoin:miter;stroke-miterlimit:4;stroke-dasharray:none;stroke-opacity:1"
         d="m 116.8259,44.337898 c 2.73876,3.905105 6.2727,10.358627 6.93741,11.626045 0.98724,1.882398 0.11593,3.0878 -0.28491,3.921497 -0.63908,1.329227 -5.3678,2.236194 -5.3678,2.236194"
         id="path11711"
         sodipodi:nodetypes="cssc" />
      <path
         style="fill:none;stroke:#000000;stroke-width:0.264583px;stroke-linecap:butt;stroke-linejoin:miter;stroke-opacity:1"
         d="m 118.25873,71.41638 28.45733,0.242705 -0.0968,16.48868 -2.08757,0.01536 0.12135,-16.564715"
         id="path12278"
         sodipodi:nodetypes="ccccc" />
      <path
         style="fill:none;stroke:#000000;stroke-width:0.264583px;stroke-linecap:butt;stroke-linejoin:miter;stroke-opacity:1"
         d="m 113.4046,83.066291 31.24846,0.182028"
         id="path12280" />
      <path
         style="fill:none;stroke:#000000;stroke-width:0.264583px;stroke-linecap:butt;stroke-linejoin:miter;stroke-opacity:1"
         d="m 138.70675,71.603017 0.0108,2.533825"
         id="path12315"
         sodipodi:nodetypes="cc" />
      <path
         style="fill:none;stroke:#000000;stroke-width:0.264583px;stroke-linecap:butt;stroke-linejoin:miter;stroke-opacity:1"
         d="m 134.7382,71.497794 -0.0415,2.68974"
         id="path12317"
         sodipodi:nodetypes="cc" />
      <path
         style="fill:none;stroke:#000000;stroke-width:0.264583px;stroke-linecap:butt;stroke-linejoin:miter;stroke-opacity:1"
         d="m 131.24353,71.598411 v 5.582248"
         id="path12319" />
      <path
         style="fill:none;stroke:#000000;stroke-width:0.264583px;stroke-linecap:butt;stroke-linejoin:miter;stroke-opacity:1"
         d="m 127.90631,71.598411 0.0507,2.28958"
         id="path12321"
         sodipodi:nodetypes="cc" />
      <path
         style="fill:none;stroke:#000000;stroke-width:0.264583px;stroke-linecap:butt;stroke-linejoin:miter;stroke-opacity:1"
         d="m 124.26571,71.477057 v 2.427065"
         id="path12323" />
      <path
         style="fill:none;stroke:#000000;stroke-width:0.264583px;stroke-linecap:butt;stroke-linejoin:miter;stroke-opacity:1"
         d="m 120.8751,71.374354 -0.12673,5.854927"
         id="path12325" />
      <path
         style="fill:none;stroke:#000000;stroke-width:1.165;stroke-linecap:butt;stroke-linejoin:miter;stroke-miterlimit:4;stroke-dasharray:none;stroke-opacity:1"
         d="m 118.00377,49.32517 c -0.0902,3.002097 0.30426,27.040237 0.0886,29.181154 -0.14929,1.48198 -2.70933,4.484447 -5.63516,4.439332 -2.4344,-0.03754 -34.096003,0.338113 -36.448733,0.181699 C 72.6113,82.901504 65.190649,78.186817 65.204962,71.936147 c 0.0096,-4.203535 -0.06403,-21.082434 0.353297,-23.430238 1.978876,-11.132843 11.72326,-15.51571 15.950377,-16.773158 10.261806,-3.052597 19.055664,-0.740952 24.013434,1.522579 5.8583,2.674671 12.6708,9.774686 12.48172,16.06984 z"
         id="path8968"
         sodipodi:nodetypes="sssssssss" />
    </g>
  </g>
</svg>
